# Blender v2.90.1 OBJ File: 'pumpkin_action_shotgun.blend'
# www.blender.org
mtllib default_bush.mtl
o Default_Bush_Cube.005
v -0.396509 0.000000 0.389915
v -0.407914 0.899511 0.402111
v -0.390156 0.000000 -0.386034
v -0.394718 0.864766 -0.383761
v 0.395376 0.000000 0.397636
v 0.382351 0.868830 0.397103
v 0.395281 0.000000 -0.400012
v 0.375942 0.848589 -0.385540
v -0.485944 0.000000 0.000968
v -0.482775 0.476615 0.477583
v -0.536141 0.963315 0.000968
v -0.494275 0.488115 -0.487148
v -0.006160 0.000000 -0.496847
v -0.006160 1.014005 -0.506035
v 0.501531 0.507691 -0.506723
v 0.494418 0.000000 0.000968
v 0.474408 0.961135 0.000968
v 0.495619 0.501778 0.502746
v -0.006160 0.000000 0.472341
v -0.006160 1.052638 0.527286
v -0.012336 1.172516 0.003382
v -0.006160 0.544493 0.662516
v 0.655389 0.544493 0.000968
v -0.006160 0.544493 -0.660581
v -0.667708 0.447847 0.000968
vt 0.348003 0.361985
vt 0.514670 0.361985
vt 0.514670 0.528651
vt 0.348003 0.528651
vt 0.500000 0.375000
vt 0.666667 0.375000
vt 0.666667 0.541667
vt 0.500000 0.541667
vt 0.500000 0.625000
vt 0.666667 0.625000
vt 0.666667 0.791667
vt 0.500000 0.791667
vt 0.684685 0.683778
vt 0.851351 0.683778
vt 0.851351 0.850444
vt 0.684685 0.850444
vt 0.570219 0.391284
vt 0.736885 0.391284
vt 0.736885 0.557951
vt 0.570219 0.557951
vt 0.403552 0.391284
vt 0.403552 0.557951
vt 0.403552 0.224617
vt 0.570219 0.224617
vt 0.736885 0.224617
vt 0.518018 0.683778
vt 0.518018 0.850444
vt 0.518018 0.517111
vt 0.684685 0.517111
vt 0.851351 0.517111
vt 0.333333 0.625000
vt 0.333333 0.791667
vt 0.333333 0.458333
vt 0.500000 0.458333
vt 0.666667 0.458333
vt 0.333333 0.375000
vt 0.333333 0.541667
vt 0.333333 0.208333
vt 0.500000 0.208333
vt 0.666667 0.208333
vt 0.181336 0.361985
vt 0.181336 0.528651
vt 0.181336 0.195318
vt 0.348003 0.195318
vt 0.514670 0.195318
vn -0.8991 0.2726 -0.3425
vn 0.3477 0.3498 -0.8699
vn 0.8783 0.3705 0.3021
vn -0.3754 0.2332 0.8971
vn -0.3822 0.8942 0.2331
vn 0.4295 0.8704 0.2408
vn 0.4135 0.8588 -0.3024
vn -0.3826 0.8692 -0.3131
vn -0.2638 -0.2739 0.9249
vn 0.2282 -0.2846 0.9311
vn 0.3624 0.2906 0.8856
vn 0.9315 -0.2583 0.2561
vn 0.9324 -0.2620 -0.2490
vn 0.8630 0.3989 -0.3101
vn 0.2464 -0.2645 -0.9324
vn -0.2833 -0.2650 -0.9217
vn -0.3684 0.3105 -0.8763
vn -0.9052 -0.3081 -0.2927
vn -0.9089 -0.2918 0.2978
vn -0.9141 0.2281 0.3352
usemtl Bush
s off
f 25/1/1 11/2/1 4/3/1 12/4/1
f 24/5/2 14/6/2 8/7/2 15/8/2
f 23/9/3 17/10/3 6/11/3 18/12/3
f 22/13/4 20/14/4 2/15/4 10/16/4
f 21/17/5 11/18/5 2/19/5 20/20/5
f 17/21/6 21/17/6 20/20/6 6/22/6
f 8/23/7 14/24/7 21/17/7 17/21/7
f 14/24/8 4/25/8 11/18/8 21/17/8
f 19/26/9 22/13/9 10/16/9 1/27/9
f 5/28/10 18/29/10 22/13/10 19/26/10
f 18/29/11 6/30/11 20/14/11 22/13/11
f 16/31/12 23/9/12 18/12/12 5/32/12
f 7/33/13 15/34/13 23/9/13 16/31/13
f 15/34/14 8/35/14 17/10/14 23/9/14
f 13/36/15 24/5/15 15/8/15 7/37/15
f 3/38/16 12/39/16 24/5/16 13/36/16
f 12/39/17 4/40/17 14/6/17 24/5/17
f 9/41/18 25/1/18 12/4/18 3/42/18
f 1/43/19 10/44/19 25/1/19 9/41/19
f 10/44/20 2/45/20 11/2/20 25/1/20
