# Blender v2.90.1 OBJ File: 'pumpkin_action_shotgun.blend'
# www.blender.org
mtllib wide_bush.mtl
o Wide_Bush_Cube.004
v -0.470520 0.000000 1.502230
v -0.416296 0.969733 1.466696
v -0.423131 0.000000 -1.492548
v -0.431413 0.979873 -1.471041
v 0.442462 0.000000 1.451998
v 0.428532 0.979078 1.452350
v 0.469990 0.000000 -1.454066
v 0.447948 0.970153 -1.514294
v -0.511295 0.000000 -1.068028
v -0.507913 0.000000 -0.517407
v -0.527988 0.000000 0.000000
v -0.524724 0.000000 0.511937
v -0.537675 0.000000 1.054307
v -0.486463 1.005176 1.025308
v -0.453462 1.003332 0.506358
v -0.598399 1.018964 -0.000000
v -0.490583 0.990080 -0.512579
v -0.536715 1.125833 -1.015857
v 0.525342 0.000000 1.030524
v 0.544068 0.000000 0.506341
v 0.518770 0.000000 -0.000000
v 0.522158 0.000000 -0.503090
v 0.591488 0.000000 -1.013793
v 0.505650 1.030203 -1.040923
v 0.464037 1.013626 -0.507874
v 0.588924 1.002893 0.000000
v 0.477032 1.000045 0.505081
v 0.515810 1.065091 1.030821
v -0.540996 0.518452 1.595439
v -0.512746 0.500055 -1.610669
v 0.518117 0.568691 -1.640308
v 0.560572 0.551981 1.582409
v 0.692379 0.502204 -1.088296
v 0.528119 0.560209 -0.502045
v 0.697016 0.602465 0.000000
v 0.602632 0.521360 0.503007
v 0.681859 0.538814 1.030883
v -0.663231 0.548633 1.036655
v -0.537132 0.570559 0.509932
v -0.679739 0.515266 0.000000
v -0.528356 0.554159 -0.519951
v -0.691141 0.548333 -1.001657
v 0.014421 0.000000 -1.518243
v -0.007889 1.043020 -1.551496
v 0.002620 0.000000 1.557874
v 0.029500 1.062238 1.570655
v -0.040353 1.228472 -1.093156
v 0.007825 1.118045 -0.519999
v -0.013236 1.228472 0.000000
v -0.024340 1.069516 0.506816
v 0.012009 1.228472 1.036687
v -0.087330 0.508985 1.735207
v -0.054355 0.588754 -1.738234
vt 0.218887 0.746004
vt 0.343887 0.746004
vt 0.343887 0.871004
vt 0.218887 0.871004
vt 0.500000 0.375000
vt 0.625000 0.375000
vt 0.625000 0.500000
vt 0.500000 0.500000
vt 0.679782 0.688681
vt 0.804782 0.688681
vt 0.804782 0.813681
vt 0.679782 0.813681
vt 0.500000 0.875000
vt 0.625000 0.875000
vt 0.625000 1.000000
vt 0.500000 1.000000
vt 0.519553 0.736078
vt 0.644553 0.736078
vt 0.644553 0.861078
vt 0.519553 0.861078
vt 0.519553 0.111078
vt 0.644553 0.111078
vt 0.644553 0.236078
vt 0.519553 0.236078
vt 0.644553 0.361078
vt 0.519553 0.361078
vt 0.644553 0.486078
vt 0.519553 0.486078
vt 0.644553 0.611078
vt 0.519553 0.611078
vt 0.679782 0.063681
vt 0.804782 0.063681
vt 0.804782 0.188681
vt 0.679782 0.188681
vt 0.804782 0.313681
vt 0.679782 0.313681
vt 0.804782 0.438681
vt 0.679782 0.438681
vt 0.804782 0.563681
vt 0.679782 0.563681
vt 0.218887 0.121004
vt 0.343887 0.121004
vt 0.343887 0.246004
vt 0.218887 0.246004
vt 0.343887 0.371004
vt 0.218887 0.371004
vt 0.343887 0.496004
vt 0.218887 0.496004
vt 0.343887 0.621004
vt 0.218887 0.621004
vt 0.093887 0.621004
vt 0.093887 0.746004
vt 0.093887 0.496004
vt 0.093887 0.371004
vt 0.093887 0.246004
vt 0.093887 0.121004
vt 0.554782 0.563681
vt 0.554782 0.688681
vt 0.554782 0.438681
vt 0.554782 0.313681
vt 0.554782 0.188681
vt 0.554782 0.063681
vt 0.375000 0.875000
vt 0.375000 1.000000
vt 0.554782 0.813681
vt 0.375000 0.375000
vt 0.375000 0.500000
vt 0.093887 0.871004
vt 0.375000 0.250000
vt 0.500000 0.250000
vt 0.375000 0.750000
vt 0.500000 0.750000
vt 0.394553 0.611078
vt 0.394553 0.736078
vt 0.394553 0.486078
vt 0.394553 0.361078
vt 0.394553 0.236078
vt 0.394553 0.111078
vt 0.394553 0.861078
vt 0.625000 0.750000
vt 0.625000 0.250000
vn -0.9259 0.2410 -0.2908
vn 0.1528 0.3430 -0.9268
vn 0.9217 0.3184 0.2214
vn -0.2751 0.3298 0.9031
vn -0.3334 0.9168 0.2195
vn -0.2251 0.9045 -0.3621
vn -0.2005 0.9511 0.2351
vn -0.2944 0.9416 -0.1638
vn -0.2572 0.9461 0.1970
vn -0.2931 0.9452 -0.1440
vn 0.9319 0.2965 -0.2090
vn 0.9569 0.2375 0.1672
vn 0.9415 0.1879 -0.2797
vn 0.9442 0.2505 0.2141
vn 0.9524 0.2766 -0.1283
vn -0.9204 0.3364 0.1991
vn -0.9510 0.2762 -0.1394
vn -0.9502 0.1684 0.2623
vn -0.9627 0.1239 -0.2405
vn -0.9566 0.1829 0.2270
vn -0.9700 -0.1853 0.1572
vn -0.9734 -0.1571 -0.1668
vn -0.9780 -0.1476 0.1476
vn -0.9837 -0.1236 -0.1305
vn -0.9659 -0.1899 0.1760
vn 0.9786 -0.1987 -0.0530
vn 0.9773 -0.2058 0.0504
vn 0.9759 -0.1545 -0.1542
vn 0.9738 -0.0833 0.2118
vn 0.9350 -0.2012 -0.2922
vn -0.2009 -0.2787 0.9392
vn 0.9438 -0.2618 0.2016
vn 0.1411 -0.3256 -0.9349
vn -0.9396 -0.2529 -0.2305
vn -0.1302 -0.3113 -0.9414
vn 0.2327 -0.2766 0.9324
vn 0.2187 0.9513 -0.2174
vn 0.2542 0.9497 0.1828
vn 0.2967 0.9472 -0.1218
vn 0.2811 0.9536 0.1078
vn 0.2737 0.9282 -0.2520
vn 0.2877 0.9206 0.2640
vn 0.2506 0.2822 0.9260
vn -0.2717 0.3504 -0.8963
usemtl Bush
s off
f 42/1/1 18/2/1 4/3/1 30/4/1
f 53/5/2 44/6/2 8/7/2 31/8/2
f 37/9/3 28/10/3 6/11/3 32/12/3
f 52/13/4 46/14/4 2/15/4 29/16/4
f 51/17/5 14/18/5 2/19/5 46/20/5
f 44/21/6 4/22/6 18/23/6 47/24/6
f 47/24/7 18/23/7 17/25/7 48/26/7
f 48/26/8 17/25/8 16/27/8 49/28/8
f 49/28/9 16/27/9 15/29/9 50/30/9
f 50/30/10 15/29/10 14/18/10 51/17/10
f 31/31/11 8/32/11 24/33/11 33/34/11
f 33/34/12 24/33/12 25/35/12 34/36/12
f 34/36/13 25/35/13 26/37/13 35/38/13
f 35/38/14 26/37/14 27/39/14 36/40/14
f 36/40/15 27/39/15 28/10/15 37/9/15
f 29/41/16 2/42/16 14/43/16 38/44/16
f 38/44/17 14/43/17 15/45/17 39/46/17
f 39/46/18 15/45/18 16/47/18 40/48/18
f 40/48/19 16/47/19 17/49/19 41/50/19
f 41/50/20 17/49/20 18/2/20 42/1/20
f 10/51/21 41/50/21 42/1/21 9/52/21
f 11/53/22 40/48/22 41/50/22 10/51/22
f 12/54/23 39/46/23 40/48/23 11/53/23
f 13/55/24 38/44/24 39/46/24 12/54/24
f 1/56/25 29/41/25 38/44/25 13/55/25
f 20/57/26 36/40/26 37/9/26 19/58/26
f 21/59/27 35/38/27 36/40/27 20/57/27
f 22/60/28 34/36/28 35/38/28 21/59/28
f 23/61/29 33/34/29 34/36/29 22/60/29
f 7/62/30 31/31/30 33/34/30 23/61/30
f 45/63/31 52/13/31 29/16/31 1/64/31
f 19/58/32 37/9/32 32/12/32 5/65/32
f 43/66/33 53/5/33 31/8/33 7/67/33
f 9/52/34 42/1/34 30/4/34 3/68/34
f 3/69/35 30/70/35 53/5/35 43/66/35
f 5/71/36 32/72/36 52/13/36 45/63/36
f 27/73/37 50/30/37 51/17/37 28/74/37
f 26/75/38 49/28/38 50/30/38 27/73/38
f 25/76/39 48/26/39 49/28/39 26/75/39
f 24/77/40 47/24/40 48/26/40 25/76/40
f 8/78/41 44/21/41 47/24/41 24/77/41
f 28/74/42 51/17/42 46/20/42 6/79/42
f 32/72/43 6/80/43 46/14/43 52/13/43
f 30/70/44 4/81/44 44/6/44 53/5/44
